<svg id="Layer_1" data-name="Layer 1" xmlns="http://www.w3.org/2000/svg" viewBox="0 0 89.86 68.54"><defs><style>.cls-1{fill:#fff;}</style></defs><title>patientbed_white_icon</title><path class="cls-1" d="M155.15,120.27h3.93a1.64,1.64,0,0,0,1.63-1.63V114.7H169v3.93a1.64,1.64,0,0,0,1.63,1.63h3.93v8.32h-3.93a1.64,1.64,0,0,0-1.63,1.63v3.93h-8.32v-3.93a1.64,1.64,0,0,0-1.63-1.63h-3.93Zm-.56,10.51h3.93v3.93a1.64,1.64,0,0,0,1.63,1.63h9.49a1.64,1.64,0,0,0,1.63-1.63v-3.93h3.93a1.64,1.64,0,0,0,1.63-1.63v-9.49A1.64,1.64,0,0,0,175.2,118h-3.93v-3.93a1.64,1.64,0,0,0-1.63-1.63h-9.49a1.64,1.64,0,0,0-1.63,1.63V118h-3.93a1.64,1.64,0,0,0-1.63,1.63v9.49A1.61,1.61,0,0,0,154.58,130.78Z" transform="translate(-103 -112.46)"/><path class="cls-1" d="M147.85,158.65l-12.4-.36-30.06-10.51,1.43-4.13,30.52,10.51c.1.05.26.05.36.1h45.83v4.39ZM128,142a5.55,5.55,0,0,1,6.43-2l6.84,2.5-2,5a1.07,1.07,0,0,0,.61,1.43,1.58,1.58,0,0,0,.41.1,1.07,1.07,0,0,0,1-.66l2.19-5.31,21.18.77-6.38,8.37H138.15L124.57,147Zm54,4.19v5.92h-.15l-6.07-7.91,4.44.15A1.79,1.79,0,0,1,182.09,146.14Zm-5.36,5.92-4.19-5.46,1.22-1.58,5.41,7Zm-5.56-3.67,2.81,3.67h-5.61Zm-.66-4.44,1.22.05-.61.77Zm-2.86-.1,2.09,2.71L165.56,152h-4.44l6.33-8.22Zm24-1.68a1.13,1.13,0,0,0-1.12,1.12V158.6h-4.85V154a1.91,1.91,0,0,0-1.43-1.84v-6a4.1,4.1,0,0,0-3.93-4.08L143,140.73l-7.76-2.86a7.71,7.71,0,0,0-9,2.86l-4.08,5.87-14.85-5.15a1.94,1.94,0,0,0-2.45,1.17l-1.63,4.64a1.86,1.86,0,0,0,.1,1.48,1.78,1.78,0,0,0,1.12,1l25.37,8.88H103.29v2.19h87.33v10.51H103.34v2.19h87.28v6.38a1.12,1.12,0,0,0,2.25,0V143.23A1.21,1.21,0,0,0,191.69,142.16Z" transform="translate(-103 -112.46)"/><path class="cls-1" d="M116.15,130a4.44,4.44,0,1,1-4.44,4.44A4.44,4.44,0,0,1,116.15,130Zm0,11.08a6.64,6.64,0,1,0-6.64-6.64A6.62,6.62,0,0,0,116.15,141.09Z" transform="translate(-103 -112.46)"/><path class="cls-1" d="M103,180V128a1,1,0,0,1,2,0v52a1,1,0,0,1-2,0Z" transform="translate(-103 -112.46)"/></svg>