<svg id="Layer_1" data-name="Layer 1" xmlns="http://www.w3.org/2000/svg" viewBox="0 0 76.09 81.96"><defs><style>.cls-1{fill:#fff;}</style></defs><title>stethoscope_white_icon</title><path class="cls-1" d="M175.06,142.53a1.79,1.79,0,1,1,1.79-1.79A1.78,1.78,0,0,1,175.06,142.53Zm0-6.2a4.41,4.41,0,1,0,4.41,4.41A4.42,4.42,0,0,0,175.06,136.33Zm0,12.2a7.76,7.76,0,1,1,7.74-7.78A7.76,7.76,0,0,1,175.06,148.53Zm10.36-7.78A10.36,10.36,0,1,0,173.77,151v26.88a16.25,16.25,0,0,1-16.21,16.21H146.65a16.25,16.25,0,0,1-16.21-16.21V162.56H135c5.75,0,9.12-5.85,10-9.82.15-.79,3.32-19.93,3.82-26.58a9,9,0,0,0-2.48-6.84,10.36,10.36,0,0,0-7.54-3.27H137a1.46,1.46,0,0,0-1.44-1.34H133a1.44,1.44,0,0,0-1.44,1.44v2.33a1.44,1.44,0,0,0,1.44,1.44h2.63a1.46,1.46,0,0,0,1.44-1.34h1.83a7.66,7.66,0,0,1,5.65,2.48A6.39,6.39,0,0,1,146.3,126c-.45,6.55-3.77,26.13-3.77,26.23-.64,3-3.27,7.74-7.49,7.74H123.19c-4.21,0-6.84-4.76-7.49-7.69,0-.2-3.32-19.78-3.77-26.33a6.39,6.39,0,0,1,1.79-4.91,7.66,7.66,0,0,1,5.65-2.48h1.83a1.46,1.46,0,0,0,1.44,1.34h2.63a1.44,1.44,0,0,0,1.44-1.44v-2.38a1.44,1.44,0,0,0-1.44-1.44h-2.63a1.46,1.46,0,0,0-1.44,1.34h-1.83a10.28,10.28,0,0,0-7.54,3.27,9,9,0,0,0-2.48,6.84c.5,6.64,3.67,25.73,3.82,26.63.84,3.92,4.21,9.77,10,9.77h4.61v15.32a18.81,18.81,0,0,0,18.79,18.79h10.91a18.81,18.81,0,0,0,18.79-18.79V150.91A10.21,10.21,0,0,0,185.42,140.74Z" transform="translate(-109.33 -114.61)"/></svg>